:SAMPLES-PER-SECOND 30
:FULLY-SPECIFIED
:DEGREES
19
root  8.44929 40.7234 1.5061 -178.478 -81.6784 175.37
RightUpLeg  0.472085 -9.38901 -7.50903
RightLeg  8.27736 1.52699 2.63055
RightFoot  -4.41323 -0.0853783 0.914468
RightToes  0.000482159 0.542163 -0.142577
Spine  3.31199 0.0787243 -0.902662
Spine1  3.75586 0.239608 -0.664573
HEad  8.69674 -8.74116 -0.765457
LeftShoulder1  0.842237 -1.45306 -9.54163
LeftArm  -25.0597 18.1069 -10.109
LeftForeArm  4.9824 -5.92071 1.25119
LeftHand  -0.25398 0.0180481 5.50724
RightShoulder  1.19476 2.66385 12.3252
RightArm  -17.5604 -5.3875 4.93335
RightForeArm  -5.74514 5.5777 4.63404
RightHand  -2.05776 6.65939 -20.0405
LeftUpLeg  3.63895 5.91016 2.06104
LeftLeg  6.29239 17.7646 -2.45368
LeftFoot  -7.44939 0.0349331 0.287337
LeftToes  1.06248e-005 4.65854e-005 -8.185e-006
20
root  8.40242 40.6553 1.5725 -178.798 -80.8648 175.281
RightUpLeg  -0.11365 -9.28797 -7.2816
RightLeg  10.0399 2.24787 1.83989
RightFoot  -5.17303 -0.10826 1.35881
RightToes  0.000482159 0.542163 -0.142577
Spine  3.67693 0.203827 -0.998589
Spine1  4.29092 0.394897 -0.93946
HEad  9.78625 -8.55519 -0.562107
LeftShoulder1  0.942056 -1.55904 -11.3273
LeftArm  -26.3648 18.0553 -11.0575
LeftForeArm  4.77972 -7.10934 1.42843
LeftHand  -0.25398 0.0180481 5.50724
RightShoulder  1.44093 3.27385 14.407
RightArm  -16.4931 -6.96705 7.03613
RightForeArm  -4.18618 7.34246 4.9902
RightHand  -1.9604 6.41765 -19.4946
LeftUpLeg  4.06241 6.28794 2.15568
LeftLeg  6.86994 18.1015 -2.55787
LeftFoot  -8.27896 0.0545912 -0.187013
LeftToes  1.06248e-005 4.65854e-005 -8.185e-006
21
root  8.37708 40.5627 1.61374 -179.135 -79.8047 175.128
RightUpLeg  -1.23232 -8.35809 -6.88883
RightLeg  12.7389 2.43216 0.891133
RightFoot  -5.96759 -0.135937 2.03924
RightToes  0.000482159 0.542163 -0.142577
Spine  4.35932 0.501682 -1.42861
Spine1  4.81127 0.612115 -0.855255
HEad  10.529 -8.23017 -0.721979
LeftShoulder1  1.10297 -1.76311 -13.89
LeftArm  -27.0292 17.4931 -12.0683
LeftForeArm  3.86001 -7.91741 1.35543
LeftHand  -0.25398 0.0180481 5.50724
RightShoulder  1.76193 4.02133 16.7593
RightArm  -14.2139 -8.94901 9.12648
RightForeArm  -0.0812155 9.48748 5.39878
RightHand  -1.83228 6.23387 -18.5462
LeftUpLeg  4.47452 6.87549 2.40741
LeftLeg  7.72646 18.522 -2.72777
LeftFoot  -9.21368 0.0696629 -0.77082
LeftToes  1.06248e-005 4.65854e-005 -8.185e-006
22
root  8.36573 40.4449 1.64772 -179.376 -78.581 174.755
RightUpLeg  -2.97482 -6.48875 -6.76116
RightLeg  16.7082 1.87588 0.402831
RightFoot  -6.38563 -0.175963 3.06079
RightToes  0.000482159 0.542163 -0.142577
Spine  5.37619 0.800128 -1.8555
Spine1  5.46354 0.827853 -0.934043
HEad  10.7005 -7.70829 -1.07245
LeftShoulder1  1.33801 -2.11 -17.0399
LeftArm  -27.1298 16.5878 -13.138
LeftForeArm  2.83867 -8.45349 1.08658
LeftHand  -0.25398 0.0180481 5.50724
RightShoulder  2.1635 4.81437 19.5708
RightArm  -10.5118 -10.8226 11.1779
RightForeArm  4.86009 11.6665 5.67846
RightHand  -1.74169 6.29094 -17.5819
LeftUpLeg  4.81015 7.56715 2.62625
LeftLeg  9.01275 19.041 -2.713
LeftFoot  -10.2329 0.0736933 -1.26645
LeftToes  1.06248e-005 4.65854e-005 -8.185e-006
23
root  8.33661 40.3253 1.67637 -179.571 -77.3341 174.362
RightUpLeg  -5.41528 -5.25953 -6.99334
RightLeg  21.8481 1.6367 0.516003
RightFoot  -5.70034 -0.266785 4.58655
RightToes  0.000482159 0.542163 -0.142577
Spine  6.41289 0.918327 -2.03103
Spine1  6.3277 0.949487 -1.38189
HEad  10.3788 -6.874 -1.41345
LeftShoulder1  1.66118 -2.65854 -20.4053
LeftArm  -26.8579 15.4806 -14.4282
LeftForeArm  2.19246 -8.59634 0.736722
LeftHand  -0.25398 0.0180481 5.50724
RightShoulder  2.59232 5.49805 22.5557
RightArm  -6.3665 -12.3427 13.7282
RightForeArm  9.69431 13.4188 5.70414
RightHand  -1.63927 6.23806 -16.6564
LeftUpLeg  5.09858 8.19434 2.74965
LeftLeg  10.3489 19.5195 -2.54757
LeftFoot  -11.2037 0.0692505 -1.80342
LeftToes  1.06248e-005 4.65854e-005 -8.185e-006
